<?xml version="1.0" standalone="no"?>
<!DOCTYPE svg PUBLIC "-//W3C//DTD SVG 20010904//EN"
 "http://www.w3.org/TR/2001/REC-SVG-20010904/DTD/svg10.dtd">
<svg version="1.0" xmlns="http://www.w3.org/2000/svg"
 width="323.000000pt" height="367.000000pt" viewBox="0 0 323.000000 367.000000"
 preserveAspectRatio="xMidYMid meet">

<g transform="translate(0.000000,367.000000) scale(0.100000,-0.100000)"
fill="#000000" stroke="none">
<path d="M7 3663 c-4 -3 -7 -829 -7 -1835 l0 -1828 1615 0 1615 0 0 1835 0
1835 -1608 0 c-885 0 -1612 -3 -1615 -7z m1768 -194 c111 -42 198 -137 235
-256 25 -81 25 -130 1 -216 -30 -111 -111 -205 -219 -255 -50 -24 -70 -27
-157 -27 -93 0 -105 2 -165 32 -204 101 -284 332 -184 533 90 180 299 261 489
189z m-999 -299 c170 -135 431 -343 581 -462 150 -120 276 -218 278 -218 3 0
126 96 273 213 147 117 413 329 590 471 178 141 326 255 329 253 6 -7 -8 -33
-164 -306 -75 -130 -167 -291 -205 -358 -37 -67 -99 -175 -137 -240 -38 -65
-67 -121 -65 -125 2 -4 91 -7 197 -7 222 -1 197 11 275 -128 26 -47 52 -92 57
-101 76 -128 145 -254 145 -266 0 -8 -23 -54 -51 -103 -100 -171 -179 -311
-179 -317 0 -7 22 -47 153 -274 43 -73 77 -139 77 -148 0 -14 -246 -450 -271
-480 -9 -11 -63 -14 -252 -16 l-241 -3 -49 -85 c-28 -47 -82 -141 -121 -210
l-71 -125 -289 0 -289 0 -62 105 c-34 58 -88 152 -121 210 l-59 105 -245 3
-246 2 -38 68 c-20 37 -75 132 -122 212 -46 80 -92 161 -103 180 l-19 35 78
135 c42 74 96 168 120 208 23 40 39 79 36 87 -3 9 -55 101 -116 206 -60 105
-110 197 -110 206 0 8 43 90 97 182 53 91 115 199 137 238 l41 73 196 0 c108
0 199 3 202 7 4 3 1 16 -7 28 -7 11 -70 120 -138 240 -69 121 -193 339 -277
484 -83 145 -151 268 -151 273 0 15 16 3 336 -252z"/>
<path d="M1549 3336 c-98 -35 -159 -124 -159 -233 0 -35 6 -78 13 -96 66 -156
278 -199 406 -84 65 60 91 197 52 282 -52 115 -192 174 -312 131z"/>
<path d="M940 2833 c0 -5 4 -13 9 -18 17 -19 521 -905 521 -918 0 -6 -22 -50
-49 -97 -26 -47 -78 -137 -115 -201 -36 -64 -66 -121 -66 -125 0 -8 126 -228
177 -309 l18 -30 200 0 200 0 18 30 c50 80 177 301 177 309 0 8 -24 51 -159
285 -39 68 -71 131 -71 140 0 9 10 32 22 51 12 19 65 112 118 205 54 94 131
229 172 300 184 320 217 379 213 383 -2 3 -157 -118 -343 -267 -187 -149 -343
-271 -347 -271 -3 0 -157 120 -341 268 -185 147 -340 269 -345 270 -5 2 -9 0
-9 -5z"/>
<path d="M617 2093 c-119 -206 -114 -193 -85 -245 33 -57 130 -224 154 -265
l19 -33 200 0 200 0 19 33 c124 214 176 308 176 316 0 9 -11 30 -129 234 l-63
107 -203 0 -203 0 -85 -147z"/>
<path d="M2140 2203 c-13 -21 -33 -56 -45 -78 -13 -22 -46 -80 -74 -128 -28
-49 -51 -94 -51 -100 0 -11 11 -32 73 -137 11 -19 43 -74 70 -122 l49 -88 201
0 202 0 94 161 c51 89 95 169 98 178 2 9 -39 91 -92 184 l-97 167 -203 0 -203
0 -22 -37z"/>
<path d="M605 1228 l-98 -172 25 -46 c14 -25 58 -102 98 -172 l73 -128 201 0
201 0 19 33 c10 17 26 46 36 62 72 123 140 246 140 251 0 4 -37 70 -82 148
-45 77 -89 153 -97 168 l-16 28 -201 0 -202 0 -97 -172z"/>
<path d="M2102 1293 c-33 -60 -76 -135 -96 -167 -20 -33 -36 -65 -36 -70 0 -6
28 -59 63 -117 34 -58 78 -134 97 -167 l35 -61 200 -1 200 0 19 33 c10 17 26
46 36 62 104 178 131 227 136 239 5 12 -32 82 -172 323 l-19 33 -202 0 -201 0
-60 -107z"/>
<path d="M1417 943 c-30 -47 -114 -190 -152 -259 l-29 -51 100 -172 99 -171
200 0 201 0 63 113 c35 61 79 137 98 168 l35 57 -20 38 c-30 60 -158 282 -172
299 -10 12 -45 15 -206 15 l-194 0 -23 -37z"/>
</g>
</svg>
